<svg width="500" height="500" version="1.1" viewBox="0 0 132.29 132.29" xmlns="http://www.w3.org/2000/svg">
    <path d="m6.9154 0.23284h65.863v11.749l-1.9177 2.2022v4.09e-4l-5.12e-4 5.62e-4 -1e-3 8.16e-4 -1e-3 1e-3 -0.0065 8e-3c-0.01029 0.01102-0.02757 0.03053-0.05209 0.05789-0.04952 0.05462-0.12866 0.14096-0.2369 0.25579-0.21648 0.2298-0.54886 0.57341-0.99407 1.0062-0.89093 0.86597-2.2291 2.0857-3.9839 3.4624-3.5152 2.7573-8.67 6.1182-15.225 8.5418-6.4922 2.4004-13.166 3.0631-18.267 3.1103-2.54 0.02349-4.6634-0.10578-6.1433-0.23971-0.7393-0.06694-1.3162-0.13485-1.7021-0.18504-0.09073-0.01174-0.17089-0.02261-0.24007-0.03217-0.07786-0.01087-0.14183-0.02001-0.19137-0.02737-0.04678-7e-3 -0.08066-0.01218-0.1012-0.01525l-0.02079-0.0033-4.09e-4 -5.2e-5 -0.0011-2.05e-4 -7.67e-4 -1.03e-4 -5.08e-4 -1.01e-4 -3.5012-0.57561 0.56963 3.5046c1.8251 11.228 3.8897 22.56 7.12 32.8 2.9291 9.2861 6.8617 17.828 12.574 24.651-1.1595 0.81129-2.439 1.8886-3.0628 2.5978-1.9022 2.1632-4.2544 8.4621-6.29 16.39h-24.186zm65.349 109.26h-41.163c-1.0631 4.1402-2.0399 8.725-2.821 13.397-0.64296 3.7583-1.4526 9.1682-1.4526 9.1682h95.982c-0.53558-3.1333-1.0742-6.4066-1.5133-9.6915-2.2327-11.181-3.261-15.908-3.9028-17.952-1.8324-5.8388-5.1822-12.071-7.394-13.756-0.29459-0.22464-1.6226-0.97772-3.4371-1.9697 4.9392-6.4969 8.4503-14.356 11.125-22.834 3.2303-10.241 5.295-21.572 7.1203-32.8l0.56928-3.5046-3.5009 0.57561-5.1e-4 1.03e-4 -1e-3 1.02e-4 -1e-3 2.05e-4v5.1e-5l-0.0209 0.0033-0.0475 0.0074-0.0536 0.0081c-0.0939 0.01392-0.23895 0.03447-0.43143 0.05954-0.38599 0.05019-0.96292 0.1181-1.7022 0.18504-1.4801 0.13392-3.6036 0.2632-6.1431 0.23971-5.101-0.04719-11.775-0.70989-18.267-3.1103-6.5546-2.4237-11.71-5.7846-15.225-8.5419-1.7548-1.3767-3.093-2.5964-3.9839-3.4624-0.4447-0.43275-0.77759-0.77636-0.99407-1.0062-0.10823-0.11481-0.18737-0.20116-0.23639-0.25579-0.02504-0.02737-0.04237-0.04681-0.05209-0.05789l-0.0071-8e-3 -1e-3 -1e-3 -5.12e-4 -8.16e-4 -5.09e-4 -5.61e-4 -5.11e-4 -4.1e-4 -1.9228-2.2081-0.0051 0.0059v7.5293c-0.98488 0.93765-2.3394 2.147-4.0426 3.4831-3.8236 2.9993-9.4383 6.6634-16.605 9.3134-7.23 2.6732-14.539 3.3765-19.99 3.4269-2.2848 0.02114-4.262-0.07234-5.7951-0.18911 1.6853 10.063 3.6009 19.887 6.4039 28.774 2.9053 9.2101 6.7163 17.252 12.072 23.44-1.5859 0.97772-2.9428 1.8212-3.737 2.3251-0.20244 0.12873-0.41402 0.27059-0.62973 0.42121 0.58475 0.69846 1.1881 1.379 1.811 2.0407 6.6454 7.0565 14.138 11.284 19.947 13.747 2.9092 1.2335 5.4115 2.031 7.2 2.5232 0.89451 0.24609 1.6124 0.4156 2.1148 0.52588 0.25171 0.0546 0.4493 0.0949 0.58868 0.12206 0.06074 0.0116 0.11078 0.0209 0.14909 0.0281zm0.09037 0h-0.09037l0.01525 3e-3 0.04849 9e-3 0.01583 3e-3 0.0057 1e-3 0.0022 5.1e-4 5.1e-4 -1e-3c5.1e-4 -1e-3 1e-3 -6e-3 0.0025-0.0145zm0.42377-2.4701c-0.34668 2.0264-0.411 2.4012-0.42377 2.4701h0.0016l-0.0025 0.0158 0.4299 0.0735 0.43041-0.0735-0.43041-2.5161c0.43041 2.5161 0.43143 2.5161 0.43194 2.5161l0.0025-5.1e-4 0.0057-1e-3 0.01525-3e-3 0.04849-9e-3c0.03982-7e-3 0.09497-0.018 0.16491-0.0312 0.13938-0.0271 0.33697-0.0674 0.58817-0.12206 0.50239-0.11032 1.2202-0.27978 2.1153-0.52588 1.788-0.49218 4.2908-1.2897 7.1995-2.5232 5.8092-2.4635 13.302-6.6909 19.947-13.747 1.1513-1.2228 2.2363-2.5109 3.26-3.8573-1.3295-0.72705-2.9209-1.5827-4.5583-2.4522 4.7023-5.9619 8.1414-13.446 10.814-21.918 2.803-8.8869 4.7186-18.711 6.404-28.774-1.5332 0.11677-3.5106 0.21025-5.7954 0.18911-5.4512-0.05005-12.76-0.75331-19.99-3.4265-7.1673-2.65-12.782-6.3142-16.605-9.3134-1.7068-1.3384-3.0629-2.5497-4.0483-3.488l-0.0051 0.0051v11.999c-0.25375-0.08679-0.45746-0.13305-0.60042-0.13305-0.93433 0-7.0024 5.2909-8.916 7.3316-3.4249 3.6528-6.9402 11.562-7.3593 16.555-0.22945 2.7336 0.38696 9.8998 1.1671 13.555 0.34315 1.6067 0.56137 4.2081 0.55064 6.598-0.02038 4.5231-0.07086 4.6252-3.2143 6.5036-2.3335 1.3949-6.4165 3.8854-9.5854 5.8388 0.37925 0.43806 0.7662 0.86694 1.1612 1.2866 6.0345 6.4081 12.872 10.279 18.223 12.547 2.6713 1.133 4.956 1.8595 6.5607 2.3011 0.80107 0.22006 1.4311 0.36863 1.8518 0.46105 0.0577 0.0116 0.1113 0.0239 0.16082 0.0346zm0-2.633v-72.88c2.6381 0.90114 10.71 6.1686 12.762 9.2623 0.34565 0.52144 0.68722 1.0208 1.0206 1.5087 3.4029 4.9787 5.9899 8.7633 4.1494 22.594-0.55754 4.1887-0.0087 11.437 0.17716 13.89 0.03268 0.43092 0.05413 0.71428 0.05668 0.8072 0.02298 0.93127 0.22363 1.2121 1.1585 1.6042 1.1697 0.49065 5.6892 2.8234 9.9014 5.0607-0.77146 0.97824-1.5771 1.9151-2.4185 2.8091-6.0349 6.4081-12.872 10.279-18.224 12.547-2.6708 1.133-4.956 1.8595-6.5602 2.3011-0.80159 0.22005-1.4316 0.36863-1.8523 0.46104-0.05922 0.0131-0.11487 0.0251-0.16594 0.0358zm0 2.633v2.4701h-0.42224z" clip-rule="evenodd" fill-rule="evenodd" stroke-width=".51056"/>
</svg>
