<?xml version="1.0" standalone="no"?>
<!DOCTYPE svg PUBLIC "-//W3C//DTD SVG 20010904//EN"
 "http://www.w3.org/TR/2001/REC-SVG-20010904/DTD/svg10.dtd">
<svg version="1.0" xmlns="http://www.w3.org/2000/svg"
 width="700.000000pt" height="700.000000pt" viewBox="0 0 700.000000 700.000000"
 preserveAspectRatio="xMidYMid meet">
<metadata>
Created by potrace 1.14, written by Peter Selinger 2001-2017
</metadata>
<g transform="translate(0.000000,700.000000) scale(0.100000,-0.100000)"
fill="#000000" stroke="none">
<path d="M369 6987 c-1 -1 -2 -1301 -3 -2890 -1 -1918 2 -2887 9 -2888 41 -4
1259 -3 1265 1 4 3 26 71 49 152 106 374 206 615 297 717 23 26 68 67 98 90
l55 42 38 -43 c284 -322 683 -607 1103 -786 114 -49 362 -136 417 -147 59 -11
97 -23 83 -25 -8 -1 -491 -3 -1072 -4 -581 0 -1059 -4 -1062 -7 -3 -3 -23 -84
-45 -180 -35 -153 -46 -207 -66 -309 -3 -14 -16 -90 -30 -170 -32 -183 -33
-187 -40 -235 -9 -65 -34 -228 -40 -262 l-6 -32 2540 0 2540 -1 -4 23 c-32
189 -43 259 -70 447 -8 56 -122 620 -150 740 -56 244 -79 319 -152 488 -66
155 -114 247 -181 348 -74 110 -104 138 -214 202 l-87 50 -58 -71 c-111 -138
-351 -366 -503 -478 -372 -273 -764 -453 -1202 -553 l-28 -6 0 138 0 139 58
13 c184 40 493 166 697 282 127 73 342 217 391 263 6 5 38 32 70 60 77 65 217
205 278 278 27 31 53 57 58 57 5 0 59 -27 120 -60 61 -33 114 -57 119 -55 4 3
32 40 62 83 164 232 322 547 440 874 43 117 133 393 142 434 2 10 15 60 29
111 26 94 121 495 130 548 3 17 19 99 36 184 17 84 32 168 35 185 3 17 13 69
21 116 9 47 17 94 19 105 1 11 17 103 34 205 18 102 34 206 37 231 l5 46 -98
-18 c-148 -27 -255 -34 -508 -34 -203 0 -315 6 -406 21 -15 2 -47 6 -70 9 -58
8 -175 32 -274 56 -494 125 -1053 465 -1377 840 l-47 54 -1 -200 0 -200 -57
-50 c-114 -101 -130 -113 -223 -182 -343 -252 -684 -419 -1075 -523 -86 -24
-93 -25 -175 -40 -30 -6 -64 -12 -75 -14 -11 -2 -45 -7 -75 -11 -30 -4 -62 -9
-71 -10 -67 -13 -232 -20 -450 -20 l-256 0 8 -40 c9 -45 60 -328 65 -362 2
-13 6 -33 8 -45 2 -13 16 -81 31 -153 15 -71 29 -141 31 -155 9 -47 55 -245
81 -345 13 -55 26 -107 28 -115 32 -140 154 -509 227 -690 78 -190 210 -459
230 -468 5 -2 8 -8 8 -13 0 -9 98 -160 155 -240 47 -66 91 -119 102 -123 11
-5 426 241 575 340 98 66 103 80 103 299 0 160 -5 244 -20 325 -3 14 -7 39
-10 55 -3 17 -7 41 -10 55 -7 32 -14 81 -21 150 -3 30 -7 69 -9 85 -9 71 -18
247 -18 330 2 230 119 562 290 817 74 111 258 291 443 434 86 67 124 88 144
81 15 -6 16 -170 16 -1932 0 -1535 -3 -1925 -13 -1925 -17 0 -196 53 -282 83
-195 69 -437 188 -603 298 -41 27 -79 49 -83 49 -5 0 -9 4 -9 8 0 4 -13 15
-29 25 -74 43 -232 179 -366 314 -51 51 -95 93 -98 93 -3 0 -52 -29 -109 -65
-57 -36 -108 -65 -115 -65 -6 0 -47 47 -90 104 -323 432 -566 1026 -748 1831
-20 88 -39 171 -41 185 -18 90 -36 176 -38 185 -1 6 -7 33 -11 60 -5 28 -10
52 -10 55 -1 3 -5 28 -10 55 -10 57 -9 51 -18 90 -4 17 -9 46 -11 65 -3 19
-21 127 -40 240 -19 113 -37 223 -40 244 -4 21 -9 49 -12 62 -10 38 1 43 68
29 148 -31 272 -40 528 -40 249 0 338 7 550 42 575 94 1198 442 1583 883 l47
54 0 312 0 313 -1740 0 c-957 0 -1740 -1 -1741 -2z m3503 -1034 c3 -7 47 -48
124 -113 166 -143 447 -323 678 -434 210 -102 502 -201 684 -232 12 -2 48 -8
80 -14 209 -36 331 -45 614 -45 224 0 257 -2 254 -15 -5 -17 -13 -60 -20 -110
-3 -19 -8 -46 -10 -60 -3 -14 -10 -54 -16 -90 -55 -317 -170 -832 -240 -1077
-150 -517 -348 -955 -564 -1247 -31 -42 -58 -76 -61 -76 -2 0 -62 30 -132 67
-70 38 -195 102 -278 143 -109 54 -153 82 -161 100 -11 22 -20 123 -30 315 -4
88 -4 415 0 450 2 17 7 62 11 100 4 39 9 79 12 90 2 11 7 103 10 205 10 315
-30 504 -144 693 -152 252 -258 372 -443 500 -148 102 -262 172 -337 206 l-53
24 0 314 c0 274 5 343 22 306z"/>
</g>
</svg>
